<svg width="467" height="197" viewBox="0 0 467 197" fill="none" xmlns="http://www.w3.org/2000/svg">
<path fill-rule="evenodd" clip-rule="evenodd" d="M0 82.8504C2.10118 81.0807 3.76966 78.5003 5.59915 76.4387C10.6958 70.6955 15.634 64.7813 20.8413 59.14C24.0846 55.6263 27.2555 52.0327 30.4007 48.4323C31.6528 46.9983 33.6301 45.6204 34.5238 43.9475C34.9043 39.9917 34.5873 35.8686 34.6125 31.892C34.6565 24.9131 34.8326 17.9322 34.9666 10.9532C35.0162 8.36338 35.1703 5.79431 35.3816 3.22019C35.4206 2.74537 35.247 0.834112 35.7797 0.594499C36.1835 0.412745 36.6445 0.672493 37.0507 0.549857C37.3444 0.461181 37.4979 0.0542771 37.7809 0.00207786C37.9947 -0.0381721 38.184 0.518418 38.2381 0.624075C38.6174 1.37499 39.1243 1.13034 39.179 2.0498C39.3368 4.71259 39.2796 7.39487 39.3041 10.0614C39.3777 17.9297 39.4764 25.7979 39.555 33.6662C39.5808 36.2856 39.5783 38.9056 39.5909 41.525C39.5966 42.7419 39.784 44.0356 39.5953 45.2349C39.1978 46.1374 38.2167 46.9248 37.5948 47.6895C35.864 49.8165 34.0672 51.9032 32.2358 53.9459C27.2801 59.4727 22.474 65.1656 17.7226 70.8685C16.5484 72.2766 15.3673 73.6948 14.1366 75.0532C13.524 75.7299 12.5398 76.5356 12.1838 77.3796C13.963 77.6148 16.0119 77.3085 17.8314 77.3274C23.2456 77.384 28.6643 77.3708 34.0811 77.4066C36.8325 77.4248 39.7399 77.2098 42.4663 77.6041C42.1411 78.4518 40.977 79.3757 40.3588 80.0568C38.8884 81.6769 37.4727 83.3491 36.0181 84.9824C31.7195 89.8118 27.4102 94.633 23.2098 99.5472C21.6841 101.332 20.1564 103.132 18.4804 104.779C17.7496 105.497 16.9956 106.444 16.0679 106.898C15.6271 105.502 15.3837 102.401 15.795 100.989C16.183 99.6592 17.7188 98.3328 18.5898 97.287C20.8772 94.5399 22.9846 91.6381 25.3154 88.9275C26.5946 87.4396 27.9039 85.944 29.0963 84.3862C29.3221 84.0906 30.1994 83.2781 30.1372 82.9139C27.8851 82.6039 25.36 82.9089 23.0752 82.9026C17.8339 82.8869 12.5926 82.9234 7.35128 82.9271C5.45702 82.9284 3.56338 82.9215 1.66911 82.9221C1.28611 82.9227 0.162887 83.2385 0 82.8504Z" fill="white"/>
<path fill-rule="evenodd" clip-rule="evenodd" d="M56.872 84.7981C57.3821 84.8484 57.4714 85.2182 57.7166 85.5855C57.8839 86.898 58.7443 88.281 58.5613 89.6237C58.4657 90.3249 57.8688 90.8985 57.4714 91.45C56.5984 92.66 55.6318 93.8279 54.6778 94.9751C52.1571 98.0076 49.6302 101.039 47.1542 104.106C46.2209 105.262 44.9769 106.365 44.2178 107.636C47.0328 107.889 50.1037 107.517 52.9514 107.515C60.4147 107.51 67.9005 107.395 75.3568 107.681C75.36 108.422 73.6097 109.864 73.1079 110.442C70.9903 112.875 68.8621 115.299 66.7848 117.766C60.8203 124.847 54.7639 131.996 48.4422 138.763C46.4202 140.928 44.5618 143.232 42.5248 145.384C41.6556 146.303 40.1469 147.425 39.6783 148.626C39.3299 149.52 39.5928 150.95 39.5878 151.901C39.574 154.52 39.5362 157.139 39.5262 159.759C39.4909 168.56 39.462 177.372 39.2475 186.171C39.1872 188.648 38.9249 190.751 37.9331 193.022C37.6508 193.669 37.696 194.131 37.1275 194.623C36.6759 195.014 36.0376 196.582 35.2433 196.163C34.3182 192.371 34.8182 187.865 34.7647 183.976C34.6547 175.907 34.5999 167.836 34.5735 159.763C34.5635 156.619 34.5679 153.474 34.5842 150.329C34.5899 149.223 34.2257 147.27 34.6653 146.263C35.0333 145.421 36.1772 144.506 36.7967 143.82C38.4916 141.942 40.1255 140.012 41.8279 138.142C46.7718 132.709 51.4358 127.04 56.25 121.497C57.8607 119.641 59.4009 117.729 60.9656 115.835C61.6027 115.064 62.5221 114.286 62.9529 113.386C56.3746 113.206 49.7855 113.194 43.2027 113.184C39.506 113.179 35.7301 112.998 32.0566 113.245C32.4013 112.3 33.5868 111.374 34.2427 110.616C35.7527 108.873 37.2564 107.126 38.7425 105.363C42.809 100.54 46.9586 95.7291 51.2024 91.062C53.0212 89.0615 54.7281 86.4433 56.872 84.7981Z" fill="#B6B8BA"/>
<path fill-rule="evenodd" clip-rule="evenodd" d="M114.824 44.7142C114.853 44.5695 114.881 44.4255 114.909 44.2809C118.048 44.3048 121.194 44.2563 124.335 44.2614C125.346 44.2626 127.215 43.8916 128.077 44.3928C127.747 48.6153 128.055 53.0126 128.057 57.2533C128.061 65.6857 128.078 74.1181 128.084 82.5504C128.087 86.5144 128.251 90.4778 128.086 94.4462C129.053 93.8582 129.987 92.2394 130.729 91.3558C132.851 88.8263 134.919 86.2478 137.072 83.7422C144.794 74.7533 152.329 65.6002 159.886 56.4735C162.32 53.5333 164.723 50.5643 167.231 47.687C168.275 46.4896 169.283 44.8626 170.576 43.9356C171.504 43.8287 173.701 43.518 174.508 43.9991C174.29 44.8211 172.958 45.9097 172.392 46.5663C170.846 48.3612 169.381 50.2309 167.851 52.0403C162.683 58.1514 157.657 64.3832 152.471 70.4792C150.75 72.503 149.002 74.5048 147.267 76.5173C146.63 77.2569 145.475 78.0934 145.153 79.0066C146.659 80.665 147.858 82.7536 149.17 84.5755C151.206 87.4043 153.274 90.2067 155.288 93.0525C161.457 101.773 167.861 110.328 174.138 118.97C176.449 122.151 178.752 125.344 181.147 128.463C182.423 130.125 183.591 131.943 185.11 133.395C184.856 133.604 184.282 133.496 183.965 133.513C183.08 133.559 182.187 133.5 181.299 133.521C177.212 133.616 173.14 133.751 169.322 132.052C165.063 130.157 162.743 125.531 160.15 121.929C154.779 114.472 149.424 106.995 143.974 99.5969C142.076 97.0197 140.161 94.4487 138.324 91.8287C137.944 91.2878 136.927 89.3779 136.349 89.2263C135.605 90.4533 134.481 91.5853 133.551 92.6865C131.738 94.8361 130.01 97.0662 128.14 99.1649C127.765 100.05 128.009 101.421 128.013 102.377C128.021 104.63 128.031 106.883 128.039 109.136C128.057 114.588 128.069 120.038 128.069 125.489C128.069 128.027 127.716 130.855 128.092 133.358C127.664 133.759 125.596 133.401 124.964 133.396C122.762 133.38 120.56 133.376 118.358 133.384C117.248 133.387 115.956 133.569 114.874 133.342C114.919 103.806 114.491 74.2501 114.824 44.7142Z" fill="white"/>
<path fill-rule="evenodd" clip-rule="evenodd" d="M188.233 44.2281C193.153 44.1174 199.126 43.2092 203.539 45.9041C207.947 48.5964 209.941 54.0818 212.352 58.4093C216.275 65.4518 220.114 72.5465 223.989 79.616C225.356 82.1109 226.724 84.6045 228.07 87.1119C228.765 88.4081 229.679 89.7087 230.08 91.1287C230.426 91.0275 230.449 90.5634 230.587 90.276C230.946 89.5269 231.301 88.7748 231.673 88.0314C233.133 85.1164 234.66 82.2171 236.247 79.3695C242.735 67.7303 248.356 55.4868 255.345 44.1381C256.374 43.7507 257.74 43.974 258.823 44.0186C258.134 45.7657 257.055 47.4386 256.149 49.0864C254.647 51.8208 253.21 54.5918 251.71 57.3288C247.36 65.2675 243.184 73.3087 238.874 81.2719C237.102 84.5479 235.257 87.7911 233.553 91.103C232.915 92.3419 231.709 93.7984 231.417 95.1556C231.196 96.1839 231.378 97.3964 231.382 98.4436C231.387 100.435 231.379 102.427 231.38 104.418C231.383 110.917 231.407 117.415 231.415 123.913C231.419 126.284 231.393 128.656 231.413 131.027C231.416 131.417 231.638 133.092 231.302 133.312C228.895 133.161 226.428 133.32 224.013 133.316C222.132 133.313 220.117 133.126 218.259 133.401C218.643 125.466 218.227 117.399 218.214 109.451C218.21 106.726 218.207 104.001 218.211 101.276C218.213 100.02 218.466 98.5108 218.156 97.2889C217.653 95.3129 216.197 93.267 215.232 91.4765C213.31 87.9119 211.397 84.3391 209.489 80.7669C204.249 70.9572 198.921 61.1614 193.163 51.6435C191.624 49.0996 189.785 46.7512 188.233 44.2281Z" fill="white"/>
<path fill-rule="evenodd" clip-rule="evenodd" d="M275.572 44.7324C275.562 44.5978 275.553 44.4639 275.544 44.3293C276.753 44.0287 278.118 44.1696 279.36 44.1809C281.455 44.2004 283.551 44.2092 285.647 44.2054C286.159 44.2041 288.508 43.9073 288.723 44.3148C288.586 49.358 288.803 54.4289 288.813 59.4753C288.838 71.31 288.887 83.1454 288.843 94.9801C288.812 103.682 288.754 112.379 288.74 121.082C288.733 125.113 288.423 129.283 288.698 133.297C287.195 133.596 285.299 133.294 283.756 133.294C281.119 133.293 278.221 133.629 275.615 133.247C275.137 128.857 275.526 124.236 275.521 119.819C275.511 111.119 275.513 102.418 275.521 93.7173C275.531 83.6674 275.665 73.6162 275.601 63.5688C275.562 57.3401 275.125 50.9416 275.572 44.7324Z" fill="#B7BABE"/>
<path fill-rule="evenodd" clip-rule="evenodd" d="M313.928 45.052C313.971 44.6507 313.962 44.8916 313.907 44.3294C319.234 43.6696 324.936 44.2394 330.302 44.2495C340.974 44.2702 352.253 43.442 361.657 49.4851C373.223 56.9169 375.678 74.8546 365.307 84.4133C362.151 87.322 357.929 89.4917 353.737 90.4093C351.316 90.9388 348.812 91.086 346.404 91.6558C346.371 92.0747 347.323 92.0596 347.641 92.0897C349.106 92.2262 350.584 92.6929 351.999 93.0815C355.607 94.0746 359.185 95.9456 361.936 98.5021C369.733 105.748 370.399 116.949 375.573 125.755C376.668 127.618 378.076 129.595 379.99 130.69C380.803 131.155 381.692 131.545 382.586 131.823C382.911 131.925 383.358 131.959 383.466 132.317C381.855 133.605 379.09 134.017 377.099 134.206C370.474 134.837 364.495 132.778 361.242 126.671C357.528 119.697 356.651 111.586 353.506 104.38C351.496 99.7756 348.108 95.5513 343.134 94.0318C340.577 93.2507 338.016 93.03 335.352 93.0105C332.786 92.9916 329.909 92.6338 327.389 93.1652C327.614 97.4097 327.364 101.738 327.378 105.993C327.408 115.094 327.442 124.199 327.359 133.299C326.089 133.685 324.388 133.402 323.069 133.399C320.086 133.391 317.068 133.291 314.092 133.448C314.036 113.29 314 93.1293 314 72.9704C314 66.47 313.975 59.9696 313.973 53.4692C313.972 50.6838 313.778 47.8279 313.928 45.052ZM327.361 47.7431C327.193 55.6245 327.372 63.5223 327.397 71.4063C327.416 77.5714 327.23 83.7781 327.508 89.932C335.939 89.4446 345.749 91.5055 352.665 85.256C355.139 83.0203 356.724 79.7682 357.604 76.5992C359.887 68.3787 358.55 57.4836 351.891 51.5725C347.803 47.9443 342.391 47.2626 337.131 47.3261C334.799 47.3544 332.468 47.3682 330.136 47.3978C329.293 47.4091 328.059 47.2431 327.361 47.7431Z" fill="white"/>
<path fill-rule="evenodd" clip-rule="evenodd" d="M389.694 132.431C397.421 112.532 405.15 92.5978 412.561 72.5791C414.354 67.7372 416.337 62.9669 418.178 58.1451C419.053 55.854 420.479 53.4629 419.801 50.9661C420.86 49.7706 421.327 48.2052 422.251 46.8908C423.814 44.6689 426.822 42.9331 429.593 43.0778C431.005 45.5022 431.816 48.353 432.9 50.9397C435.035 56.0382 437.102 61.1739 439.077 66.3347C444.425 80.3191 450.197 94.1481 455.682 108.08C457.962 113.873 460.268 119.679 462.725 125.4C463.482 127.164 464.141 128.97 464.894 130.735C465.208 131.472 466.046 132.699 466.064 133.481C461.976 133.64 457.083 134.048 453.356 132.043C450.353 130.427 448.952 127.347 447.692 124.352C445.253 118.56 443.62 112.303 440.87 106.658C440.519 106.284 439.01 106.48 438.469 106.471C436.163 106.431 433.856 106.435 431.55 106.434C422.102 106.432 412.64 106.304 403.195 106.463C400.843 112.828 398.338 119.141 395.872 125.463C394.881 128.005 394.173 130.96 392.823 133.328C391.748 133.282 390.665 133.395 389.59 133.414C389.406 133.103 389.613 132.772 389.694 132.431ZM404.447 102.884C404.335 103.257 404.332 103.08 404.423 103.417C408.878 102.992 413.556 103.34 418.035 103.335C425.243 103.326 432.479 103.156 439.683 103.348C439.446 102.231 438.68 101.023 438.241 99.9548C437.39 97.8913 436.657 95.782 435.8 93.7217C432.96 86.9025 430.151 80.0065 427.637 73.0615C426.366 69.5516 424.949 66.0718 423.564 62.6047C423.051 61.3211 422.596 60.0199 422.154 58.7111C422.054 58.4149 421.906 57.5181 421.692 57.3558C421.601 57.2879 421.596 57.5621 421.548 57.6646C419.614 64.3927 416.469 70.7666 414.138 77.3626C411.973 83.4919 409.44 89.491 407.202 95.5933C406.316 98.0064 405.549 100.563 404.447 102.884Z" fill="white"/>
</svg>
